<svg xmlns="http://www.w3.org/2000/svg" width="44.787" height="31.689" viewBox="0 0 44.787 31.689">
  <g id="cardsmall" transform="translate(0.5 0.5)">
    <path id="Path_78" data-name="Path 78" d="M1261.07,78h11a.826.826,0,0,0,0-1.652h-11a.826.826,0,0,0,0,1.652Z" transform="translate(-1254.149 -61.83)" stroke="#000" stroke-width="1"/>
    <path id="Path_79" data-name="Path 79" d="M1289.684,48.112h-38.8a2.5,2.5,0,0,0-2.493,2.494v25.7a2.5,2.5,0,0,0,2.493,2.493h38.8a2.5,2.5,0,0,0,2.493-2.493v-25.7A2.5,2.5,0,0,0,1289.684,48.112Zm.842,28.2a.842.842,0,0,1-.842.842h-38.8a.842.842,0,0,1-.841-.842V58.755h40.483Zm0-19.205h-40.483v-6.5a.842.842,0,0,1,.841-.842h38.8a.843.843,0,0,1,.842.842Z" transform="translate(-1248.39 -48.112)" stroke="#000" stroke-width="1"/>
  </g>
</svg>
