<svg xmlns="http://www.w3.org/2000/svg" width="47.259" height="41.278" viewBox="0 0 47.259 41.278">
  <path id="headsetsmall" d="M1164.338,53.331h-5.124a15.975,15.975,0,0,0-31.821,0h-5.124a2.1,2.1,0,0,0-2.095,2.095V65.513a2.1,2.1,0,0,0,2.095,2.095h5.167a13.077,13.077,0,0,0,1.7,4.873,9.287,9.287,0,0,0,3.406,3.248,17.006,17.006,0,0,0,7.9,1.7,2.091,2.091,0,0,0,2.039,1.643h3.582a2.09,2.09,0,0,0,2.087-2.087v-.751a2.09,2.09,0,0,0-2.087-2.088h-3.582a2.091,2.091,0,0,0-2.036,1.631,15.449,15.449,0,0,1-7.1-1.486c-2.489-1.387-3.917-3.86-4.367-7.556V54.764a14.324,14.324,0,0,1,28.648,0V66.782a.826.826,0,0,0,.826.826h5.885a2.1,2.1,0,0,0,2.094-2.095V55.426A2.1,2.1,0,0,0,1164.338,53.331Zm-37.01,8.924v3.7h-5.059a.449.449,0,0,1-.443-.443V55.426a.449.449,0,0,1,.443-.443h5.059Zm14.72,13.973a.441.441,0,0,1,.436-.436h3.582a.441.441,0,0,1,.435.436v.751a.441.441,0,0,1-.435.436h-3.582a.441.441,0,0,1-.436-.436Zm22.733-10.716a.449.449,0,0,1-.443.443h-5.06V54.983h5.06a.449.449,0,0,1,.443.443Z" transform="translate(-1119.674 -38.288)" stroke="#000" stroke-width="1"/>
</svg>
